<?xml version="1.0" encoding="UTF-8" standalone="no"?>
<svg
   xmlns:dc="http://purl.org/dc/elements/1.1/"
   xmlns:cc="http://creativecommons.org/ns#"
   xmlns:rdf="http://www.w3.org/1999/02/22-rdf-syntax-ns#"
   xmlns:svg="http://www.w3.org/2000/svg"
   xmlns="http://www.w3.org/2000/svg"
   version="1.1"
   id="svg5582"
   viewBox="0 0 302 204.27155"
   height="100"
   width="100">
  <defs
     id="defs5584">
    <clipPath
       id="clipPath5238"
       clipPathUnits="userSpaceOnUse">
      <path
         id="path5240"
         d="m 0,0 623.622,0 0,807.874 L 0,807.874 0,0 Z" />
    </clipPath>
    <clipPath
       id="clipPath5222"
       clipPathUnits="userSpaceOnUse">
      <path
         id="path5224"
         d="m 0,0 623.622,0 0,807.874 L 0,807.874 0,0 Z" />
    </clipPath>
    <clipPath
       id="clipPath5206"
       clipPathUnits="userSpaceOnUse">
      <path
         id="path5208"
         d="m 0,0 623.622,0 0,807.874 L 0,807.874 0,0 Z" />
    </clipPath>
    <clipPath
       id="clipPath5186"
       clipPathUnits="userSpaceOnUse">
      <path
         id="path5188"
         d="m 0,0 623.622,0 0,807.874 L 0,807.874 0,0 Z" />
    </clipPath>
  </defs>
  <metadata
     id="metadata5587">
    <rdf:RDF>
      <cc:Work
         rdf:about="">
        <dc:format>image/svg+xml</dc:format>
        <dc:type
           rdf:resource="http://purl.org/dc/dcmitype/StillImage" />
        <dc:title></dc:title>
      </cc:Work>
    </rdf:RDF>
  </metadata>
  <g
     transform="translate(-653.31692,-349.13427)"
     id="layer1">
    <g
       id="g5182"
       transform="matrix(21.954861,0,0,-21.954861,-1389.7465,10829.698)">
      <g
         clip-path="url(#clipPath5186)"
         id="g5184">
        <g
           transform="translate(105.7204,468.1102)"
           id="g5190">
          <path
             id="path5192"
             style="fill:#000000;fill-opacity:1;fill-rule:nonzero;stroke:none"
             d="m 0,0 c -0.639,0 -1.018,0.327 -1.047,0.798 l 0.611,0 c 0,-0.157 0.087,-0.366 0.465,-0.379 0.262,0 0.407,0.157 0.407,0.275 C 0.407,0.877 0.174,0.89 -0.058,0.93 -0.32,0.968 -0.523,1.021 -0.669,1.086 c -0.203,0.105 -0.32,0.328 -0.32,0.563 0,0.419 0.35,0.746 0.96,0.746 0.582,0 0.96,-0.301 0.988,-0.759 l -0.581,0 C 0.378,1.753 0.349,1.95 0,1.95 -0.233,1.95 -0.378,1.911 -0.407,1.741 -0.407,1.505 0.087,1.518 0.465,1.427 0.814,1.335 1.047,1.113 1.047,0.798 1.047,0.222 0.582,0 0,0" />
        </g>
      </g>
    </g>
    <g
       transform="matrix(21.954861,0,0,-21.954861,686.85399,467.93088)"
       id="g5194">
      <path
         id="path5196"
         style="fill:#000000;fill-opacity:1;fill-rule:nonzero;stroke:none"
         d="m 0,0 2.006,1.165 1.076,-1.846 -2.704,0" />
    </g>
    <g
       transform="matrix(21.954861,0,0,-21.954861,779.46399,551.25186)"
       id="g5198">
      <path
         id="path5200"
         style="fill:none;stroke:#000000;stroke-width:0.58700001;stroke-linecap:butt;stroke-linejoin:miter;stroke-miterlimit:4;stroke-dasharray:none;stroke-opacity:1"
         d="M 0,0 0,2.33" />
    </g>
    <g
       id="g5202"
       transform="matrix(21.954861,0,0,-21.954861,-1389.7465,10829.698)">
      <g
         clip-path="url(#clipPath5206)"
         id="g5204">
        <g
           transform="translate(93.655,469.3141)"
           id="g5210">
          <path
             id="path5212"
             style="fill:#000000;fill-opacity:1;fill-rule:nonzero;stroke:none"
             d="m 0,0 c 0,-0.366 0.32,-0.667 0.668,-0.667 0.379,0 0.669,0.301 0.669,0.667 0,0.353 -0.29,0.667 -0.669,0.667 C 0.32,0.667 0,0.353 0,0 M 0.639,-1.204 C 0,-1.204 -0.552,-0.667 -0.552,0 c 0,0.667 0.552,1.191 1.191,1.191 0.262,0 0.495,-0.066 0.698,-0.209 l 0,0.183 0.582,0 0,-2.316 -0.582,0 0,0.144 C 1.163,-1.138 0.901,-1.204 0.639,-1.204" />
        </g>
      </g>
    </g>
    <g
       transform="matrix(21.954861,0,0,-21.954861,850.90721,482.87336)"
       id="g5214">
      <path
         id="path5216"
         style="fill:#000000;fill-opacity:1;fill-rule:nonzero;stroke:none"
         d="M 0,0 -2.791,4.868 -0.785,6.046 2.704,0" />
    </g>
    <g
       id="g5218"
       transform="matrix(21.954861,0,0,-21.954861,-1389.7465,10829.698)">
      <g
         clip-path="url(#clipPath5222)"
         id="g5220">
        <g
           transform="translate(96.3296,469.3141)"
           id="g5226">
          <path
             id="path5228"
             style="fill:#000000;fill-opacity:1;fill-rule:nonzero;stroke:none"
             d="m 0,0 c 0,-0.366 0.291,-0.667 0.669,-0.667 0.348,0 0.669,0.301 0.669,0.667 0,0.353 -0.321,0.667 -0.669,0.667 C 0.291,0.667 0,0.353 0,0 m 0.64,-1.204 c -0.669,0 -1.192,0.537 -1.192,1.204 0,0.667 0.523,1.191 1.192,1.191 0.261,0 0.494,-0.066 0.698,-0.209 l 0,0.981 0.581,0 0,-3.114 -0.581,0 0,0.144 C 1.134,-1.138 0.901,-1.204 0.64,-1.204" />
        </g>
      </g>
    </g>
    <g
       transform="matrix(21.954861,0,0,-21.954861,738.56419,422.25371)"
       id="g5230">
      <path
         id="path5232"
         style="fill:#000000;fill-opacity:1;fill-rule:nonzero;stroke:none"
         d="m 0,0 2.035,1.151 2.239,-3.912 -2.123,0 0,-0.576 -0.581,0 0,0.576" />
    </g>
    <g
       id="g5234"
       transform="matrix(21.954861,0,0,-21.954861,-1389.7465,10829.698)">
      <g
         clip-path="url(#clipPath5238)"
         id="g5236">
        <g
           transform="translate(106.3893,470.7015)"
           id="g5242">
          <path
             id="path5244"
             style="fill:#000000;fill-opacity:1;fill-rule:nonzero;stroke:none"
             d="m 0,0 c -0.146,0 -0.291,0.131 -0.291,0.288 0,0.157 0.145,0.288 0.291,0.288 0.174,0 0.291,-0.131 0.291,-0.288 C 0.291,0.131 0.174,0 0,0 m 0,0.536 c -0.146,0 -0.233,-0.117 -0.233,-0.248 0,-0.131 0.087,-0.249 0.233,-0.249 0.145,0 0.232,0.118 0.232,0.249 0,0.131 -0.087,0.248 -0.232,0.248" />
        </g>
        <g
           transform="translate(106.4473,470.8325)"
           id="g5246">
          <path
             id="path5248"
             style="fill:#000000;fill-opacity:1;fill-rule:nonzero;stroke:none"
             d="m 0,0 -0.058,0.131 -0.058,0 0,-0.131 -0.044,0 0,0.314 0.131,0 C 0,0.314 0.058,0.274 0.058,0.222 0.058,0.17 0.029,0.144 0,0.131 L 0.058,0 m -0.116,0.274 -0.058,0 0,-0.104 0.058,0 C 0,0.17 0,0.183 0,0.222 0,0.249 0,0.274 -0.058,0.274" />
        </g>
        <g
           transform="translate(102.5515,469.3141)"
           id="g5250">
          <path
             id="path5252"
             style="fill:#000000;fill-opacity:1;fill-rule:nonzero;stroke:none"
             d="m 0,0 c 0,-0.366 0.291,-0.667 0.669,-0.667 0.349,0 0.668,0.301 0.668,0.667 0,0.353 -0.319,0.667 -0.668,0.667 C 0.291,0.667 0,0.353 0,0 m 0.639,-1.204 c -0.668,0 -1.191,0.537 -1.191,1.204 0,0.667 0.523,1.191 1.191,1.191 0.262,0 0.495,-0.066 0.698,-0.209 l 0,0.183 0.553,0 0,-2.316 -0.553,0 0,0.144 C 1.134,-1.138 0.901,-1.204 0.639,-1.204" />
        </g>
        <g
           transform="translate(99.8766,469.3141)"
           id="g5254">
          <path
             id="path5256"
             style="fill:#000000;fill-opacity:1;fill-rule:nonzero;stroke:none"
             d="m 0,0 c 0,-0.366 0.32,-0.667 0.669,-0.667 0.378,0 0.669,0.301 0.669,0.667 0,0.353 -0.291,0.667 -0.669,0.667 C 0.32,0.667 0,0.353 0,0 m 1.338,1.963 0.581,0 0,-3.114 -0.581,0 0,0.144 C 1.163,-1.138 0.93,-1.204 0.669,-1.204 0,-1.204 -0.552,-0.667 -0.552,0 c 0,0.667 0.552,1.191 1.221,1.191 0.261,0 0.494,-0.066 0.669,-0.209 l 0,0.981 z" />
        </g>
      </g>
    </g>
  </g>
</svg>
